# xmcd CD database file
#
# Track frame offsets:
#	151
#	16458
#	33215
#	48924
#	66093
#	76938
#	93593
#	116546
#	133067
#	143926
#	162465
#	174214
#	185009
#	207138
#	224175
#
# Disc length: 3155 seconds
#
# Revision: 0
# Processed by: cddbd v1.5.1PL0 Copyright (c) Steve Scherf et al.
# Submitted via: CDex 1.51
#
DISCID=d70c510f
DTITLE=La Famille Daraîche - 27 Chansons du temps des Fêtes - Le Party de Noël des Daraîche
DYEAR=1900
DGENRE=Country
TTITLE0=C'est la nuit de Noël
TTITLE1=Noël blanc
TTITLE2=Ces Noël d'autrefois
TTITLE3=La valse de Noël
TTITLE4=Le temps des fêtes
TTITLE5=Moi j'ai vu petite maman
TTITLE6=Le Noël d'une sans-abri
TTITLE7=C'est Noël
TTITLE8=Vive le vent
TTITLE9=Le cadeau de la vie
TTITLE10=Le p'tit renne au nez rouge
TTITLE11=Au royaume du Bonhomme Hiver
TTITLE12=Petit Papa Noël
TTITLE13=Petite fille
TTITLE14=Le jour de l'an
EXTD=
EXTT0=
EXTT1=
EXTT2=
EXTT3=
EXTT4=
EXTT5=
EXTT6=
EXTT7=
EXTT8=
EXTT9=
EXTT10=
EXTT11=
EXTT12=
EXTT13=
EXTT14=
PLAYORDER=
